<?xml version="1.0" encoding="UTF-8" standalone="no"?>
<svg width="440px" height="400px" viewBox="0 0 440 400" version="1.1" xmlns="http://www.w3.org/2000/svg" xmlns:xlink="http://www.w3.org/1999/xlink" xmlns:sketch="http://www.bohemiancoding.com/sketch/ns">
    <title>Artboard 1</title>
    <description>Created with Sketch (http://www.bohemiancoding.com/sketch)</description>
    <defs></defs>
    <g id="Page-1" stroke="none" stroke-width="1" fill="none" fill-rule="evenodd" sketch:type="MSPage">
        <g id="Artboard-1" sketch:type="MSArtboardGroup">
            <path d="M373.340611,362.58944 C379.340792,360.709052 383.090905,354.69181 381.59086,348.298491 C374.090634,312.947198 354.590047,294.143319 327.964245,277.219828 C320.46402,272.706897 311.463749,268.946121 301.713455,264.809267 C283.337902,257.663793 262.712281,249.390086 258.212146,235.475216 C255.587067,226.449353 259.33718,214.038793 269.462485,198.243534 C300.588422,147.849138 306.213591,104.224138 285.962981,69.2489224 C270.212507,42.1713362 243.586706,26 213.960814,26 C184.709934,26 157.709121,42.1713362 141.958647,69.2489224 C121.708037,104.224138 127.333207,147.849138 158.834155,198.243534 C168.95946,214.038793 172.709573,226.449353 169.709482,235.475216 C165.209347,249.390086 144.583726,257.663793 126.583184,264.809267 C116.457879,268.946121 107.082597,272.706897 99.9573828,277.219828 C73.3315814,294.143319 53.8309945,312.947198 46.3307687,348.298491 C44.8307236,354.69181 48.5808365,360.709052 54.5810171,362.58944 C56.0810622,362.965517 97.3323038,375 213.960814,375 C272.087564,375 311.463749,371.991379 336.589505,368.982759 C361.715261,365.974138 372.590589,362.58944 373.340611,362.58944 L373.340611,362.58944 Z" id="user" fill="#000000" sketch:type="MSShapeGroup"></path>
            <path d="M209.030656,158.213673 C206.178619,158.213673 203.801922,155.988249 203.801922,153.126989 C204.277261,137.390058 221.07259,130.554826 228.519576,121.176251 C230.104041,119.268745 230.579381,117.04332 230.579381,114.658937 C230.579381,111.479759 229.470255,109.572252 227.093558,107.187869 C224.71686,104.962444 221.389483,103.531814 217.269874,103.531814 C210.615121,103.531814 205.22794,108.936417 203.960368,113.705183 C203.485029,116.089567 201.425224,117.520197 199.048526,117.520197 L188.432611,117.520197 C185.580574,117.520197 183.362323,115.61269 183.362323,112.75143 C183.362323,112.274553 183.520769,111.956636 183.520769,111.479759 C183.520769,111.479759 183.837662,110.684964 183.837662,110.526006 C187.323485,99.398883 198.41474,86.5232128 216.477642,86.5232128 C226.459771,86.5232128 234.382097,89.2255139 240.244617,94.7890752 C246.265584,100.511595 249.592961,107.823704 249.592961,115.294772 C249.592961,119.586662 248.166942,123.560635 245.948691,127.216689 C243.888887,131.031703 238.977045,135.959428 232.005399,142.317784 C228.836469,145.020085 225.350646,148.517181 224.399967,152.809071 C224.399967,155.670331 222.181716,158.213673 219.329679,158.213673 L209.030656,158.213673 Z M213.784051,195.251095 C207.604638,195.251095 202.217457,189.846493 202.217457,183.647096 C202.217457,177.447699 207.604638,172.043097 213.784051,172.043097 C219.963465,172.043097 225.350646,177.447699 225.350646,183.647096 C225.350646,189.846493 219.963465,195.251095 213.784051,195.251095 Z" id="question" fill="#FFFFFF" sketch:type="MSShapeGroup"></path>
        </g>
    </g>
</svg>