<?xml version="1.0" encoding="UTF-8" standalone="no"?>
<svg width="440px" height="400px" viewBox="0 0 440 400" version="1.1" xmlns="http://www.w3.org/2000/svg" xmlns:xlink="http://www.w3.org/1999/xlink" xmlns:sketch="http://www.bohemiancoding.com/sketch/ns">
    <title>Artboard 1</title>
    <description>Created with Sketch (http://www.bohemiancoding.com/sketch)</description>
    <defs></defs>
    <g id="Page-1" stroke="none" stroke-width="1" fill="none" fill-rule="evenodd" sketch:type="MSPage">
        <g id="Artboard-1" sketch:type="MSArtboardGroup" fill="#000000">
            <path d="M373.373569,366.590336 C379.374353,364.710084 383.124844,358.693277 381.624648,352.30042 C374.123667,316.951681 354.621117,298.14916 327.992634,281.226891 C320.491653,276.714286 311.490476,272.953782 301.739201,268.817227 C283.361798,261.672269 262.359052,253.39916 258.233512,239.485294 C256.358267,234.220588 257.483414,227.451681 260.108757,219.554622 C291.987926,216.546218 327.242536,211.657563 331.743125,206.016807 C333.993419,203.008403 334.743517,199.247899 333.61837,195.487395 C332.118174,188.342437 330.242929,178.565126 327.992634,167.283613 C317.116212,108.995798 300.989103,21 243.606599,21 C234.230373,21 224.104049,23.6323529 213.977725,28.5210084 C203.851401,23.6323529 194.100126,21 184.723899,21 C126.966347,21 110.839238,108.995798 99.9628154,167.283613 C98.0875702,178.941176 96.2123249,188.718487 94.3370797,195.487395 C93.5869816,198.871849 93.9620307,202.256303 95.8372759,204.888655 C97.3374721,207.521008 100.337864,209.401261 103.338257,210.153361 C104.838453,210.529412 131.841984,216.546218 167.846692,219.930672 C170.847085,227.451681 171.597183,234.220588 169.721938,239.485294 C165.596398,253.39916 144.593652,261.672269 126.591298,268.817227 C116.464973,272.953782 107.088747,276.714286 99.9628154,281.226891 C73.3343332,298.14916 53.8317829,316.951681 46.330802,352.30042 C44.8306059,358.693277 48.5810963,364.710084 54.581881,366.590336 C56.0820772,366.966387 97.3374721,379 213.977725,379 C272.110327,379 311.490476,375.991597 336.618762,372.983193 C361.747048,369.97479 372.623471,366.590336 373.373569,366.590336 L373.373569,366.590336 Z" id="femaleuser" sketch:type="MSShapeGroup"></path>
        </g>
    </g>
</svg>