<?xml version="1.0" encoding="UTF-8" standalone="no"?>
<svg width="440px" height="400px" viewBox="0 0 440 400" version="1.1" xmlns="http://www.w3.org/2000/svg" xmlns:xlink="http://www.w3.org/1999/xlink" xmlns:sketch="http://www.bohemiancoding.com/sketch/ns">
    <title>Artboard 1</title>
    <description>Created with Sketch (http://www.bohemiancoding.com/sketch)</description>
    <defs></defs>
    <g id="Page-1" stroke="none" stroke-width="1" fill="none" fill-rule="evenodd" sketch:type="MSPage">
        <g id="Artboard-1" sketch:type="MSArtboardGroup" fill="#000000">
            <path d="M373.340611,362.58944 C379.340792,360.709052 383.090905,354.69181 381.59086,348.298491 C374.090634,312.947198 354.590047,294.143319 327.964245,277.219828 C320.46402,272.706897 311.463749,268.946121 301.713455,264.809267 C283.337902,257.663793 262.712281,249.390086 258.212146,235.475216 C255.587067,226.449353 259.33718,214.038793 269.462485,198.243534 C300.588422,147.849138 306.213591,104.224138 285.962981,69.2489224 C270.212507,42.1713362 243.586706,26 213.960814,26 C184.709934,26 157.709121,42.1713362 141.958647,69.2489224 C121.708037,104.224138 127.333207,147.849138 158.834155,198.243534 C168.95946,214.038793 172.709573,226.449353 169.709482,235.475216 C165.209347,249.390086 144.583726,257.663793 126.583184,264.809267 C116.457879,268.946121 107.082597,272.706897 99.9573828,277.219828 C73.3315814,294.143319 53.8309945,312.947198 46.3307687,348.298491 C44.8307236,354.69181 48.5808365,360.709052 54.5810171,362.58944 C56.0810622,362.965517 97.3323038,375 213.960814,375 C272.087564,375 311.463749,371.991379 336.589505,368.982759 C361.715261,365.974138 372.590589,362.58944 373.340611,362.58944 L373.340611,362.58944 Z" id="user" sketch:type="MSShapeGroup"></path>
        </g>
    </g>
</svg>