<?xml version="1.0" encoding="utf-8"?>
<!-- Generator: Adobe Illustrator 16.0.0, SVG Export Plug-In . SVG Version: 6.00 Build 0)  -->
<!DOCTYPE svg PUBLIC "-//W3C//DTD SVG 1.1//EN" "http://www.w3.org/Graphics/SVG/1.1/DTD/svg11.dtd">
<svg version="1.1" id="Layer_1" xmlns="http://www.w3.org/2000/svg" xmlns:xlink="http://www.w3.org/1999/xlink" x="0px" y="0px"
	 width="459.496px" height="142.997px" viewBox="0 0 459.496 142.997" enable-background="new 0 0 459.496 142.997"
	 xml:space="preserve">
<g>
	<g>
		<g>
			<circle fill="#F68A4F" cx="66.031" cy="72.089" r="36.787"/>
			<polygon fill="#F3CFB5" points="47.278,116.574 81.943,116.574 64.125,136.034 			"/>
			<path fill="#F68A4F" d="M82.25,107.015c0,4.375-8.039,7.92-17.956,7.92c-9.921,0-17.96-3.545-17.96-7.92
				c0-4.379,8.039-7.924,17.96-7.924C74.211,99.091,82.25,102.636,82.25,107.015z"/>
			<circle fill="#F68A4F" cx="68.989" cy="74.498" r="33.185"/>
			<g>
				<g>
					<path fill="#3A3A3A" d="M65.165,29.799c-22.372,0-40.569,18.198-40.569,40.567c0,14.581,7.715,27.877,20.259,35.129
						l0.006,11.725c0,0.003,0,0.003,0,0.006l0,0c0,0.088,0.012,0.17,0.02,0.254c0.006,0.074,0.009,0.15,0.021,0.224
						c0.028,0.181,0.073,0.351,0.13,0.517c0.014,0.037,0.033,0.071,0.045,0.104c0.057,0.139,0.121,0.271,0.197,0.401
						c0.009,0.02,0.018,0.043,0.028,0.06c0.022,0.036,0.051,0.067,0.074,0.102c0.039,0.057,0.073,0.118,0.115,0.175l17.308,22.748
						c0.564,0.748,1.451,1.187,2.39,1.187c0,0,0,0,0.003,0c0.94,0,1.827-0.441,2.393-1.189l17.259-22.751
						c0.192-0.254,0.351-0.536,0.457-0.841v-0.003c0.119-0.331,0.173-0.679,0.17-1.022v-11.694
						c12.545-7.252,20.265-20.548,20.265-35.129C105.733,47.998,87.533,29.799,65.165,29.799z M65.08,129.5
						c-1.271,0-2.458,0.306-3.463,0.831l-9.351-12.285l1.065-0.649l4.16,2.212c0.509,0.39,1.145,0.615,1.819,0.615h0.085
						c0.678,0,1.311-0.226,1.819-0.615l4.163-2.212l3.898,2.387c0.909,0.554,2.045,0.588,2.98,0.088l4.655-2.475l1.121,0.687
						l-9.347,12.321C67.65,129.833,66.413,129.5,65.08,129.5z M62.351,90.75c0.7,0.057,1.39,0.091,2.067,0.091h0.358
						c1.02,0,2.097-0.073,3.201-0.212l-0.103,21.248l-0.824-0.506c-0.907-0.557-2.043-0.591-2.98-0.091l-1.618,0.862L62.351,90.75z
						 M81.282,100.945c-1.073,0.457-1.824,1.522-1.824,2.762v8.198l-0.873-0.534c-0.907-0.557-2.042-0.591-2.98-0.091l-1.72,0.916
						l0.11-22.89c1.652-0.517,3.26-1.155,4.733-1.89c5.721-2.844,9.079-6.802,9.709-11.44c0.729-5.342-1.997-10.06-6.627-11.474
						c-3.872-1.179-9.02,0.146-11.787,5.774c-1.91,3.879-2.198,10.253-2.158,14.307c-1.085,0.161-2.127,0.243-3.088,0.243h-0.358
						c-0.633,0-1.288-0.034-1.958-0.104c0.043-4.045-0.229-10.522-2.16-14.446c-2.766-5.627-7.909-6.953-11.785-5.774
						c-4.63,1.414-7.355,6.131-6.627,11.473c0.619,4.563,3.839,8.614,9.067,11.402c1.667,0.89,3.497,1.633,5.379,2.197l0.106,22.666
						l-1.802-0.961c-0.938-0.5-2.073-0.466-2.983,0.091l-0.785,0.483v-8.147c0-1.245-0.76-2.312-1.842-2.771
						c-11.372-6.011-18.423-17.702-18.423-30.569c0-19.056,15.503-34.556,34.559-34.556c19.053,0,34.558,15.5,34.558,34.556
						C99.722,83.239,92.66,94.933,81.282,100.945z M73.881,82.994c0.067-3.734,0.475-7.905,1.536-10.064
						c1.023-2.082,2.464-2.812,3.712-2.812c0.325,0,0.639,0.048,0.927,0.137c1.37,0.418,2.83,1.957,2.427,4.912
						C82.016,78.576,78.243,81.315,73.881,82.994z M56.447,83.27c-0.932-0.348-1.827-0.751-2.666-1.197
						c-2.458-1.312-5.483-3.576-5.938-6.908c-0.401-2.954,1.056-4.493,2.429-4.911c0.285-0.089,0.599-0.137,0.921-0.137
						c1.252,0,2.692,0.73,3.712,2.812C56.066,75.283,56.408,79.689,56.447,83.27z"/>
				</g>
			</g>
			<g>
				<path fill="#3A3A3A" d="M64.981,17.205c-1.695,0-3.068-1.373-3.068-3.067V3.067C61.913,1.374,63.286,0,64.981,0
					c1.691,0,3.067,1.374,3.067,3.067v11.07C68.048,15.833,66.672,17.205,64.981,17.205z"/>
			</g>
			<g>
				<path fill="#3A3A3A" d="M34.103,26.353c-1.005,0-1.991-0.493-2.579-1.396l-6.027-9.284c-0.924-1.421-0.518-3.322,0.903-4.244
					s3.319-0.52,4.243,0.901l6.031,9.284c0.921,1.422,0.517,3.322-0.904,4.246C35.255,26.193,34.674,26.353,34.103,26.353z"/>
			</g>
			<g>
				<path fill="#3A3A3A" d="M13.178,50.845c-0.416,0-0.84-0.085-1.243-0.266L1.823,46.077c-1.549-0.689-2.246-2.502-1.557-4.05
					c0.689-1.548,2.503-2.245,4.051-1.555l10.112,4.502c1.548,0.689,2.245,2.503,1.557,4.051
					C15.477,50.167,14.356,50.845,13.178,50.845z"/>
			</g>
			<g>
				<path fill="#3A3A3A" d="M95.861,26.353c-0.574,0-1.155-0.16-1.67-0.494c-1.424-0.924-1.824-2.823-0.903-4.246l6.03-9.284
					c0.924-1.421,2.822-1.823,4.243-0.901s1.824,2.823,0.903,4.244l-6.03,9.284C97.846,25.86,96.863,26.353,95.861,26.353z"/>
			</g>
			<g>
				<path fill="#3A3A3A" d="M116.781,50.845c-1.173,0-2.297-0.678-2.806-1.821c-0.688-1.548,0.006-3.361,1.554-4.051l10.115-4.502
					c1.546-0.689,3.359,0.007,4.051,1.555c0.689,1.548-0.008,3.361-1.556,4.05l-10.113,4.503
					C117.623,50.76,117.196,50.845,116.781,50.845z"/>
			</g>
		</g>
	</g>
	<g>
		<path fill="#3A3A3A" d="M158.808,95.786v22.661h-11.416V95.872l-20.688-35.366l11.846-1.889l15.022,26.782l14.506-26.181h12.189
			L158.808,95.786z"/>
		<path fill="#3A3A3A" d="M212.028,106.816c-0.974,2.661-2.348,4.922-4.12,6.781c-1.774,1.86-3.863,3.276-6.267,4.249
			c-2.403,0.972-5.008,1.459-7.812,1.459s-5.394-0.487-7.768-1.459c-2.376-0.973-4.421-2.389-6.138-4.249
			c-1.717-1.859-3.062-4.12-4.034-6.781c-0.974-2.661-1.46-5.679-1.46-9.057c0-3.375,0.486-6.395,1.46-9.056
			c0.972-2.661,2.331-4.921,4.077-6.781c1.745-1.858,3.805-3.29,6.181-4.292c2.373-1,4.964-1.502,7.768-1.502
			s5.408,0.502,7.812,1.502c2.403,1.002,4.478,2.434,6.224,4.292c1.745,1.86,3.104,4.12,4.077,6.781
			c0.973,2.661,1.459,5.681,1.459,9.056C213.487,101.137,213,104.155,212.028,106.816z M200.955,88.244
			c-1.66-2.468-4.034-3.703-7.125-3.703c-3.09,0-5.422,1.221-6.995,3.66c-1.575,2.441-2.361,5.613-2.361,9.516
			c0,3.791,0.801,6.934,2.404,9.431c1.602,2.497,3.919,3.746,6.952,3.746c3.205,0,5.608-1.22,7.211-3.66
			c1.602-2.439,2.403-5.611,2.403-9.517C203.444,93.871,202.614,90.713,200.955,88.244z"/>
		<path fill="#3A3A3A" d="M248.294,115.829c-2.833,2.262-6.996,3.391-12.49,3.391c-3.033,0-5.98-0.401-8.841-1.201
			c-2.862-0.801-5.294-1.745-7.297-2.833l1.374-8.584c2.231,1.488,4.663,2.676,7.296,3.562c2.632,0.888,5.236,1.33,7.812,1.33
			c2.231,0,3.934-0.386,5.107-1.158c1.172-0.773,1.76-1.816,1.76-3.134c0-0.743-0.129-1.387-0.387-1.931
			c-0.257-0.544-0.701-1.03-1.33-1.46c-0.631-0.429-1.489-0.828-2.575-1.201c-1.088-0.372-2.461-0.758-4.12-1.159
			c-2.52-0.629-4.679-1.315-6.481-2.06c-1.803-0.743-3.276-1.616-4.42-2.618c-1.146-1.001-1.989-2.175-2.532-3.52
			c-0.545-1.344-0.815-2.962-0.815-4.851c0-3.604,1.33-6.537,3.991-8.798c2.661-2.26,6.423-3.391,11.287-3.391
			c5.437,0,10.271,0.974,14.507,2.918l-1.373,8.584c-2.061-1.144-4.249-2.06-6.566-2.746c-2.318-0.688-4.507-1.03-6.567-1.03
			c-1.945,0-3.391,0.343-4.334,1.03c-0.944,0.687-1.417,1.603-1.417,2.746c0,0.573,0.114,1.073,0.344,1.503
			c0.228,0.429,0.629,0.845,1.201,1.244c0.572,0.401,1.359,0.787,2.361,1.159c1,0.373,2.274,0.759,3.819,1.158
			c2.689,0.688,4.979,1.403,6.867,2.146c1.889,0.744,3.434,1.631,4.636,2.661c1.201,1.029,2.073,2.246,2.617,3.647
			c0.544,1.403,0.816,3.077,0.816,5.021C252.543,110.378,251.126,113.569,248.294,115.829z"/>
		<path fill="#3A3A3A" d="M280.096,118.918c-1.03,0.143-2.29,0.215-3.777,0.215c-2.06,0-3.92-0.201-5.579-0.601
			c-1.661-0.399-3.091-1.087-4.292-2.061c-1.202-0.972-2.133-2.26-2.79-3.862c-0.658-1.602-0.987-3.576-0.987-5.923V85.399h-5.837
			v-8.412h5.837V63.854l10.129-1.545v14.678h8.498l1.288,8.412h-9.786v19.571c0,1.66,0.415,2.934,1.245,3.819
			c0.829,0.889,2.245,1.331,4.249,1.331c1.315,0,2.403-0.114,3.262-0.344l1.287,8.67
			C282.041,118.619,281.125,118.775,280.096,118.918z"/>
		<path fill="#3A3A3A" d="M314.688,118.447l-0.858-5.408c-1.66,1.774-3.604,3.263-5.837,4.464c-2.231,1.202-4.893,1.803-7.982,1.803
			c-3.549,0-6.396-1.016-8.541-3.047c-2.146-2.031-3.219-4.851-3.219-8.455c0-5.035,2.06-8.77,6.18-11.202
			c4.12-2.432,10.387-4.048,18.799-4.85v-1.202c0-2.231-0.614-3.82-1.843-4.764c-1.229-0.944-2.985-1.417-5.27-1.417
			c-2.401,0-4.743,0.315-7.028,0.944c-2.285,0.631-4.543,1.432-6.771,2.403l-1.287-8.24c2.4-0.973,4.917-1.773,7.547-2.403
			c2.629-0.629,5.603-0.944,8.918-0.944c5.373,0,9.389,1.072,12.047,3.219s3.987,5.708,3.987,10.688v28.412H314.688z
			 M313.229,97.759c-2.959,0.344-5.392,0.831-7.298,1.46c-1.905,0.63-3.398,1.33-4.479,2.103s-1.835,1.618-2.261,2.532
			c-0.427,0.916-0.641,1.86-0.641,2.833c0,1.488,0.44,2.661,1.323,3.52c0.881,0.858,2.119,1.287,3.712,1.287
			c1.764,0,3.456-0.386,5.078-1.158c1.62-0.773,3.143-1.874,4.565-3.306V97.759z"/>
		<path fill="#3A3A3A" d="M334.172,118.447V58.103l10.301-1.631v61.976H334.172z"/>
		<path fill="#3A3A3A" d="M392.372,76.386l1.373,8.24l-7.554,0.515c0.4,0.803,0.688,1.661,0.858,2.575
			c0.172,0.916,0.258,1.86,0.258,2.833c0,2.231-0.444,4.235-1.33,6.009c-0.889,1.774-2.09,3.262-3.605,4.464
			c-1.517,1.201-3.276,2.132-5.279,2.789c-2.004,0.659-4.12,0.987-6.352,0.987c-1.202,0-2.318-0.086-3.348-0.258
			c-1.146,0.858-1.717,1.604-1.717,2.232c0,0.343,0.099,0.63,0.3,0.858c0.2,0.229,0.586,0.443,1.159,0.644
			c0.571,0.201,1.358,0.387,2.36,0.558c1.001,0.172,2.303,0.373,3.906,0.602l5.321,0.515c2.116,0.287,4.034,0.687,5.751,1.202
			c1.717,0.515,3.177,1.173,4.378,1.974c1.202,0.803,2.117,1.774,2.747,2.919c0.629,1.146,0.944,2.518,0.944,4.12
			c0,2.231-0.573,4.206-1.717,5.923c-1.146,1.717-2.704,3.176-4.679,4.378c-1.974,1.201-4.291,2.103-6.952,2.704
			c-2.661,0.601-5.48,0.901-8.455,0.901c-2.805,0-5.408-0.215-7.812-0.645c-2.403-0.429-4.493-1.072-6.267-1.931
			c-1.774-0.858-3.162-1.932-4.163-3.22c-1.002-1.287-1.502-2.789-1.502-4.506c0-1.946,0.657-3.691,1.975-5.236
			c1.315-1.545,3.262-3.061,5.837-4.55c-1.603-1.258-2.403-2.746-2.403-4.463c0-2.288,1.744-4.492,5.235-6.61
			c-2.461-1.144-4.377-2.76-5.751-4.85c-1.373-2.088-2.06-4.507-2.06-7.253c0-2.232,0.429-4.263,1.287-6.095
			c0.858-1.831,2.046-3.376,3.562-4.635c1.516-1.259,3.275-2.232,5.279-2.919c2.002-0.687,4.176-1.03,6.523-1.03
			c4.749,0,8.67,1.287,11.76,3.863L392.372,76.386z M359.924,122.653c0,1.545,0.93,2.818,2.79,3.82c1.859,1,4.765,1.502,8.713,1.502
			c3.719,0,6.58-0.545,8.584-1.631c2.002-1.088,3.004-2.403,3.004-3.949c0-1.146-0.515-2.046-1.545-2.703
			c-1.03-0.659-2.833-1.188-5.408-1.589l-5.579-0.687c-1.431-0.172-2.562-0.328-3.391-0.472c-0.83-0.143-1.76-0.329-2.79-0.559
			C361.384,118.447,359.924,120.535,359.924,122.653z M375.848,84.97c-1.346-1.488-3.105-2.232-5.279-2.232
			c-2.29,0-4.064,0.772-5.322,2.317c-1.259,1.546-1.889,3.464-1.889,5.752c0,2.175,0.645,3.978,1.932,5.407
			c1.288,1.432,3.047,2.146,5.279,2.146c2.288,0,4.077-0.743,5.365-2.232c1.287-1.487,1.931-3.348,1.931-5.579
			S377.192,86.458,375.848,84.97z"/>
		<path fill="#3A3A3A" d="M409.882,68.403c-1.202,1.088-2.633,1.631-4.292,1.631c-1.717,0-3.176-0.543-4.378-1.631
			c-1.201-1.086-1.803-2.489-1.803-4.206c0-1.773,0.602-3.219,1.803-4.335c1.202-1.116,2.661-1.674,4.378-1.674
			c1.659,0,3.09,0.558,4.292,1.674c1.202,1.116,1.803,2.562,1.803,4.335C411.685,65.914,411.084,67.316,409.882,68.403z
			 M400.354,118.447v-41.46h10.301v41.46H400.354z"/>
		<path fill="#3A3A3A" d="M445.676,118.447l-0.858-5.408c-1.66,1.774-3.604,3.263-5.837,4.464c-2.231,1.202-4.893,1.803-7.982,1.803
			c-3.549,0-6.396-1.016-8.541-3.047c-2.146-2.031-3.219-4.851-3.219-8.455c0-5.035,2.06-8.77,6.18-11.202
			c4.12-2.432,10.387-4.048,18.799-4.85v-1.202c0-2.231-0.614-3.82-1.843-4.764c-1.229-0.944-2.985-1.417-5.27-1.417
			c-2.401,0-4.743,0.315-7.028,0.944c-2.285,0.631-4.543,1.432-6.771,2.403l-1.287-8.24c2.4-0.973,4.917-1.773,7.547-2.403
			c2.629-0.629,5.603-0.944,8.918-0.944c5.373,0,9.389,1.072,12.047,3.219s3.987,5.708,3.987,10.688v28.412H445.676z
			 M444.217,97.759c-2.959,0.344-5.392,0.831-7.298,1.46c-1.905,0.63-3.398,1.33-4.479,2.103s-1.835,1.618-2.261,2.532
			c-0.427,0.916-0.641,1.86-0.641,2.833c0,1.488,0.44,2.661,1.323,3.52c0.881,0.858,2.119,1.287,3.712,1.287
			c1.764,0,3.456-0.386,5.078-1.158c1.62-0.773,3.143-1.874,4.565-3.306V97.759z"/>
	</g>
</g>
</svg>
